<?xml version="1.0" encoding="UTF-8" standalone="no"?>
<!-- Created with Inkscape (http://www.inkscape.org/) -->

<svg
   xmlns:dc="http://purl.org/dc/elements/1.1/"
   xmlns:cc="http://creativecommons.org/ns#"
   xmlns:rdf="http://www.w3.org/1999/02/22-rdf-syntax-ns#"
   xmlns:svg="http://www.w3.org/2000/svg"
   xmlns="http://www.w3.org/2000/svg"
   xmlns:sodipodi="http://sodipodi.sourceforge.net/DTD/sodipodi-0.dtd"
   xmlns:inkscape="http://www.inkscape.org/namespaces/inkscape"
   width="210mm"
   height="297mm"
   viewBox="0 0 210 297"
   version="1.1"
   id="svg8"
   inkscape:version="0.92.4 (5da689c313, 2019-01-14)"
   sodipodi:docname="eptafLogo.svg"
   inkscape:export-filename="C:\Developpement\GITepims-eptafTEST\eP-TAF\src\main\resources\eptafLogo.png"
   inkscape:export-xdpi="4.8000002"
   inkscape:export-ydpi="4.8000002">
  <defs
     id="defs2" />
  <sodipodi:namedview
     id="base"
     pagecolor="#ffffff"
     bordercolor="#666666"
     borderopacity="1.0"
     inkscape:pageopacity="0.0"
     inkscape:pageshadow="2"
     inkscape:zoom="0.25"
     inkscape:cx="-996.59843"
     inkscape:cy="-552.59377"
     inkscape:document-units="mm"
     inkscape:current-layer="layer1"
     showgrid="true"
     inkscape:snap-global="false"
     inkscape:window-width="1920"
     inkscape:window-height="1137"
     inkscape:window-x="-8"
     inkscape:window-y="-8"
     inkscape:window-maximized="1"
     inkscape:snap-bbox="true">
    <inkscape:grid
       type="xygrid"
       id="grid4520" />
  </sodipodi:namedview>
  <metadata
     id="metadata5">
    <rdf:RDF>
      <cc:Work
         rdf:about="">
        <dc:format>image/svg+xml</dc:format>
        <dc:type
           rdf:resource="http://purl.org/dc/dcmitype/StillImage" />
        <dc:title />
      </cc:Work>
    </rdf:RDF>
  </metadata>
  <g
     inkscape:label="Calque 1"
     inkscape:groupmode="layer"
     id="layer1">
    <text
       xml:space="preserve"
       style="font-style:normal;font-weight:normal;font-size:10.58333302px;line-height:1.25;font-family:sans-serif;letter-spacing:0px;word-spacing:0px;fill:#000000;fill-opacity:1;stroke:none;stroke-width:0.26458332"
       x="52.916664"
       y="74.75"
       id="text4528"><tspan
         sodipodi:role="line"
         id="tspan4526"
         x="52.916664"
         y="84.405495"
         style="stroke-width:0.26458332" /></text>
    <g
       id="g13435" />
    <g
       id="g903"
       inkscape:export-xdpi="4.8000002"
       inkscape:export-ydpi="4.8000002">
      <rect
         inkscape:export-ydpi="4.4011459"
         inkscape:export-xdpi="4.4011459"
         inkscape:export-filename="C:\Developpement\GITepims-clientTEST\epims-client\src\main\resources\eptaf-64.png"
         y="74.75"
         x="-225.42499"
         height="331.25833"
         width="328.08328"
         id="rect4595"
         style="fill:#ffffff;fill-opacity:0.01694916;stroke:none;stroke-width:0.93025452;stroke-miterlimit:4;stroke-dasharray:none;stroke-opacity:1" />
      <rect
         y="76.866653"
         x="-232.8333"
         height="336.55002"
         width="336.54999"
         id="rect4595-8"
         style="fill:#ffffff;fill-opacity:0;stroke:none;stroke-width:0.94967687;stroke-miterlimit:4;stroke-dasharray:none;stroke-opacity:1" />
      <circle
         r="155.575"
         cy="238.79167"
         cx="-59.266666"
         id="path867"
         style="fill:#ffffff;fill-opacity:1;stroke:none;stroke-width:1;stroke-miterlimit:4;stroke-dasharray:none;stroke-opacity:1" />
      <path
         inkscape:export-ydpi="4.4011459"
         inkscape:export-xdpi="4.4011459"
         inkscape:export-filename="C:\Developpement\GITepims-clientTEST\epims-client\src\main\resources\eptaf-64.png"
         sodipodi:nodetypes="ccsc"
         inkscape:connector-curvature="0"
         id="path4565"
         d="m -107.49643,246.72916 78.997024,-45.73512 c 0,0 -27.887633,-24.70852 -58.964284,-4.53571 -27.35541,17.75724 -20.03274,50.27083 -20.03274,50.27083 z"
         style="fill:#00ffff;fill-opacity:1;stroke:none;stroke-width:0.26458332px;stroke-linecap:butt;stroke-linejoin:miter;stroke-opacity:1" />
      <path
         inkscape:export-ydpi="4.4011459"
         inkscape:export-xdpi="4.4011459"
         inkscape:export-filename="C:\Developpement\GITepims-clientTEST\epims-client\src\main\resources\eptaf-64.png"
         sodipodi:nodetypes="ccsccscscc"
         inkscape:connector-curvature="0"
         id="path4569"
         d="m -163.81488,315.52083 42.71131,-23.43451 c 0,0 28.726189,29.48212 59.720237,26.45833 30.994048,-3.02382 32.883928,-6.80359 51.4047616,-16.25298 13.985119,-7.18156 77.4851184,-45.35715 77.4851184,-45.35715 0,0 -7.9375,40.06548 -20.032739,54.05059 -12.095236,13.98513 -39.6874986,37.41964 -57.830355,46.11309 -18.520834,8.69347 -25.70238,10.96132 -56.318453,9.44941 -30.616072,-1.51191 -55.18452,-12.09523 -66.52381,-21.16667 -12.47321,-8.69343 -30.61607,-29.86011 -30.61607,-29.86011 z"
         style="fill:#00ffff;fill-opacity:1;stroke:none;stroke-width:0.26458332px;stroke-linecap:butt;stroke-linejoin:miter;stroke-opacity:1" />
      <path
         inkscape:export-ydpi="4.4011459"
         inkscape:export-xdpi="4.4011459"
         inkscape:export-filename="C:\Developpement\GITepims-clientTEST\epims-client\src\main\resources\eptaf-64.png"
         sodipodi:nodetypes="cscsssssssccccccssscscc"
         inkscape:connector-curvature="0"
         id="path4571"
         d="m -178.93393,287.92858 c 0,0 -7.57176,-22.27875 -9.07143,-52.5387 -1.0857,-21.90683 3.77976,-37.79762 8.31548,-48.38095 4.53571,-10.58334 11.0511,-26.8568 30.99405,-43.84524 20.41071,-17.3869 39.30952,-26.45834 49.136903,-29.48214 9.827379,-3.02381 30.994046,-7.18155 47.247021,-6.04762 16.252979,1.13392 38.175596,7.55952 48.0029775,12.85119 9.8273808,5.29166 28.1697535,14.19614 40.4434515,28.72619 16.303565,19.30075 21.166667,31.37202 23.8125,37.79762 2.645833,6.42559 7.9375,29.10416 7.9375,32.50595 0,3.40178 -102.809523,59.34227 -102.809523,59.34227 0,0 -17.008927,7.9375 -25.324405,8.31546 -8.315476,0.37798 -24.946428,-8.31546 -29.860118,-11.33928 -4.913691,-3.02381 -1.889882,-0.75596 -1.889882,-0.75596 L 16.857738,212.71131 c 0,0 -0.755953,-9.82738 -11.3392857,-23.43453 -12.0952381,-12.47321 -22.3005953,-21.92262 -35.9077373,-27.21428 -13.607142,-5.29167 -35.529763,-8.69345 -53.67262,-1.88988 -18.142855,6.80357 -38.175595,20.41071 -46.113095,36.66369 -7.9375,16.25297 -11.71726,23.8125 -11.33929,40.44345 10e-6,13.98512 2.26786,17.76488 3.02381,22.30059 0.75595,4.53572 1.88988,3.02381 1.88988,3.02381 z"
         style="fill:#0d74eb;fill-opacity:1;stroke:none;stroke-width:0.26458332px;stroke-linecap:butt;stroke-linejoin:miter;stroke-opacity:1" />
      <path
         style="fill:#007763;fill-opacity:0.98728811;stroke:none;stroke-width:1;stroke-linecap:butt;stroke-linejoin:miter;stroke-miterlimit:4;stroke-dasharray:none;stroke-opacity:1"
         d="m -22.136981,270.68752 v 54.68124 h -41.01093 L -8.4666754,380.04999 46.214574,325.36876 H 5.2036436 v -54.68124 z"
         id="path869"
         inkscape:connector-curvature="0" />
      <path
         inkscape:connector-curvature="0"
         id="path846"
         d="m -16.845314,264.86666 v 54.68124 h -41.01093 L -3.1750083,374.22913 51.506241,319.5479 H 10.49531 v -54.68124 z"
         style="fill:#00f541;fill-opacity:0.98728811;stroke:none;stroke-width:1;stroke-linecap:butt;stroke-linejoin:miter;stroke-miterlimit:4;stroke-dasharray:none;stroke-opacity:1" />
    </g>
  </g>
</svg>
